<svg width="28" height="22" viewBox="0 0 28 22" fill="none" xmlns="http://www.w3.org/2000/svg">
<path id="Vector" d="M26.25 9.6875H15.75V1.8125C15.75 1.4644 15.5656 1.13056 15.2374 0.884423C14.9092 0.638281 14.4641 0.5 14 0.5C13.5359 0.5 13.0908 0.638281 12.7626 0.884423C12.4344 1.13056 12.25 1.4644 12.25 1.8125V9.6875H1.75C1.28587 9.6875 0.840752 9.82578 0.512563 10.0719C0.184375 10.3181 0 10.6519 0 11C0 11.3481 0.184375 11.6819 0.512563 11.9281C0.840752 12.1742 1.28587 12.3125 1.75 12.3125H12.25V20.1875C12.25 20.5356 12.4344 20.8694 12.7626 21.1156C13.0908 21.3617 13.5359 21.5 14 21.5C14.4641 21.5 14.9092 21.3617 15.2374 21.1156C15.5656 20.8694 15.75 20.5356 15.75 20.1875V12.3125H26.25C26.7141 12.3125 27.1592 12.1742 27.4874 11.9281C27.8156 11.6819 28 11.3481 28 11C28 10.6519 27.8156 10.3181 27.4874 10.0719C27.1592 9.82578 26.7141 9.6875 26.25 9.6875Z" fill="#EBECEF"/>
</svg>
