<svg width="25" height="22" viewBox="0 0 25 22" fill="none" xmlns="http://www.w3.org/2000/svg">
<g id="Group 1">
<path id="Vector" d="M10.6108 2.06364L1.25308 17.6856C1.06014 18.0197 0.958059 18.3985 0.956979 18.7843C0.955899 19.1702 1.05586 19.5495 1.24692 19.8847C1.43798 20.2199 1.71348 20.4992 2.04601 20.6949C2.37853 20.8906 2.7565 20.9958 3.14229 21H21.8577C22.2435 20.9958 22.6214 20.8906 22.954 20.6949C23.2865 20.4992 23.562 20.2199 23.7531 19.8847C23.9441 19.5495 24.0441 19.1702 24.043 18.7843C24.0419 18.3985 23.9398 18.0197 23.7469 17.6856L14.3892 2.06364C14.1923 1.73895 13.9149 1.4705 13.584 1.28419C13.2531 1.09788 12.8798 1 12.5 1C12.1202 1 11.7469 1.09788 11.416 1.28419C11.085 1.4705 10.8077 1.73895 10.6108 2.06364Z" stroke="white" stroke-linecap="round" stroke-linejoin="round"/>
<path id="Vector_2" d="M12.4999 7.74219V12.1614" stroke="white" stroke-linecap="round" stroke-linejoin="round"/>
<path id="Vector_3" d="M12.4999 16.5811H12.511" stroke="white" stroke-linecap="round" stroke-linejoin="round"/>
</g>
</svg>
