<svg width="37" height="37" viewBox="0 0 37 37" fill="none" xmlns="http://www.w3.org/2000/svg">
<g id="Group 30">
<circle id="Ellipse 22" cx="18.4999" cy="18.5" r="18.5" fill="#FFDFE6"/>
<g id="Mask group">
<mask id="mask0_2081_206" style="mask-type:alpha" maskUnits="userSpaceOnUse" x="0" y="0" width="37" height="37">
<circle id="Ellipse 23" cx="18.4999" cy="18.5" r="18.5" fill="#FFEADF"/>
</mask>
<g mask="url(#mask0_2081_206)">
<g id="Group">
<path id="Vector" d="M7.63405 27.2706L6.46748 36.9999H-0.743225L-0.504194 35.3866C-0.417184 34.3253 -0.151427 33.3063 0.266597 32.3563C0.975238 30.7723 2.14591 29.4832 3.58295 28.5983V28.5958C3.65654 28.5488 3.73062 28.5088 3.80421 28.4639C4.95921 27.7983 6.26636 27.3825 7.63405 27.2706Z" fill="#186BE7"/>
<path id="Vector_2" d="M37.3183 36.9999H30.0872L28.8447 26.6204C29.6653 26.6876 30.4672 26.8641 31.2247 27.1409C33.4126 27.932 35.2515 29.5366 36.2125 31.7105C36.6305 32.6537 36.894 33.6749 36.9833 34.7365L37.3183 36.9999Z" fill="#186BE7"/>
<path id="XMLID_2_" d="M32.4755 27.794L31.2427 37.0001H4.68674L3.58295 28.5983V28.5958C3.65653 28.5488 3.73062 28.5088 3.8042 28.4639C5.47033 27.4815 9.25282 26.3512 11.9549 25.6179C13.8613 25.101 15.8279 24.8447 17.8037 24.8536L19.9047 24.8636C21.3716 24.8702 22.8331 25.0239 24.2698 25.3217C26.5946 25.803 30.0439 26.5757 31.224 27.1411C31.676 27.3532 32.0936 27.5726 32.4755 27.794Z" fill="#24BAEC"/>
<g id="Group_2">
<path id="Vector_3" d="M24.4291 15.8822C24.4291 15.8822 25.0247 17.5151 22.3619 18.464L22.5471 31.8101L14.6484 28.2696L15.3493 20.5549L18.3796 19.2526L19.1022 17.9473C19.1022 17.9473 20.1512 16.5939 20.278 16.4607C20.4045 16.3273 21.5268 15.34 21.5268 15.34L23.9388 16.0677L24.4291 15.8822Z" fill="#FAB9C9"/>
<path id="Vector_4" d="M21.0019 19.8336C21.4974 17.8703 20.2172 17.9432 18.7808 18.5297L18.3807 19.2525L15.5689 20.4608L15.271 21.5074L14.9931 24.8484C14.993 24.8484 19.9896 23.8465 21.0019 19.8336Z" fill="#1B1E28"/>
<path id="Vector_5" d="M13.1616 14.794C13.1616 14.794 10.9703 13.8008 11.74 11.5478C12.5095 9.29469 12.5287 9.29481 12.369 8.23278C12.209 7.17088 12.6174 4.52724 15.7191 5.26795C18.8211 6.00878 19.2411 6.08883 20.8242 5.42768C22.4073 4.76652 24.5914 6.20916 24.2506 9.71532C23.9613 12.6954 23.3296 11.8712 23.93 13.4672C24.5306 15.0631 24.1773 15.462 23.1249 15.7136C20.6864 16.2963 19.5021 15.1344 19.5021 15.0795C19.5021 15.0247 19.0212 13.8026 18.7206 13.6424C18.4201 13.482 15.675 12.7208 15.6151 12.8008C15.5549 12.8809 14.6489 14.1381 14.6489 14.1381L13.1616 14.794Z" fill="#1B1E28"/>
<g id="Group_3">
<g id="Group_4">
<path id="Vector_6" d="M11.9097 15.1246C12.8003 15.1731 13.7035 15.1295 14.5957 15.1213C14.6655 15.1206 14.6657 15.012 14.5957 15.0126C13.7035 15.0197 12.7997 14.991 11.9097 15.0546C11.8648 15.0576 11.8645 15.1225 11.9097 15.1246Z" fill="#1B1E28"/>
</g>
</g>
<path id="Vector_7" d="M13.1668 11.7184V18.6001C13.1668 18.6001 12.9518 21.8677 15.4048 21.9988C17.8577 22.1298 19.3368 22.0082 20.1328 21.1373C20.9286 20.2666 21.6776 18.7124 21.1155 14.5834C20.5539 10.4543 19.9642 9.75236 19.9642 9.75236L16.9026 8.82532L14.0092 9.33085L13.1668 11.7184Z" fill="#FAB9C9"/>
<path id="Vector_8" d="M13.163 18.8916C13.1781 19.695 13.4022 21.892 15.4048 21.9987C17.8578 22.1298 19.3368 22.0082 20.1328 21.1373C20.7253 20.4891 21.2911 19.4613 21.3103 17.2753C21.3067 16.5647 21.2477 15.7378 21.1157 14.7669C21.0387 14.1998 20.9703 13.6849 20.9091 13.215C20.4185 10.2934 19.9644 9.75248 19.9644 9.75248L16.9027 8.82544L14.0094 9.33097L13.2058 11.6084L13.1669 11.9019V11.972C13.1669 11.972 13.3143 11.5929 13.9254 11.614C14.5364 11.635 14.473 11.347 15.1893 10.5535C15.9057 9.76018 16.2568 10.7642 16.8227 11.2346C17.3886 11.7051 18.1878 11.0801 19.1146 11.052C20.0417 11.0238 19.8589 12.1335 19.6836 12.4355C19.5079 12.7374 19.3464 13.1658 19.9085 13.3695C20.4701 13.573 20.6665 13.6642 20.7371 15.0405C20.807 16.4169 20.435 17.3931 19.7256 17.8563C19.0165 18.3199 17.5208 18.2145 16.4814 17.4211C15.4421 16.6276 14.3148 17.3897 13.771 17.6247C13.4837 17.7486 13.205 17.588 13.167 17.5646V18.6V18.7833C13.1669 18.7836 13.1644 18.8235 13.163 18.8916Z" fill="#E5A0B1"/>
<g id="Group_5">
<g id="Group_6">
<path id="Vector_9" d="M15.2857 13.5009C15.1743 14.3844 15.0417 15.3821 15.1588 16.2665C15.2018 16.5914 15.3936 16.8428 15.8323 16.7513C15.9444 16.7278 15.8967 16.5937 15.7847 16.6119C15.0954 16.7247 15.3326 15.2959 15.3392 15.0451C15.3532 14.5304 15.3781 14.0159 15.3725 13.5009C15.3719 13.455 15.2911 13.4568 15.2857 13.5009Z" fill="#EAAABA"/>
</g>
</g>
<g id="Group_7">
<path id="Vector_10" d="M16.7238 15.8207C16.9218 15.8207 17.0824 15.6602 17.0824 15.4621C17.0824 15.2641 16.9218 15.1035 16.7238 15.1035C16.5257 15.1035 16.3652 15.2641 16.3652 15.4621C16.3652 15.6602 16.5257 15.8207 16.7238 15.8207Z" fill="#1B1E28"/>
</g>
<g id="Group_8">
<path id="Vector_11" d="M14.0011 15.8207C14.1992 15.8207 14.3597 15.6602 14.3597 15.4621C14.3597 15.2641 14.1992 15.1035 14.0011 15.1035C13.8031 15.1035 13.6425 15.2641 13.6425 15.4621C13.6425 15.6602 13.8031 15.8207 14.0011 15.8207Z" fill="#1B1E28"/>
</g>
<g id="Group_9">
<g id="Group_10">
<path id="Vector_12" d="M13.3405 14.2127C13.551 14.1281 13.7254 14.0091 13.9582 13.9806C14.2155 13.9484 14.4217 14.0232 14.6599 14.1039C14.7587 14.1373 14.7975 14.0012 14.7259 13.9477C14.345 13.6634 13.5516 13.7095 13.2729 14.1246C13.2451 14.1656 13.2919 14.2325 13.3405 14.2127Z" fill="#1B1E28"/>
</g>
</g>
<g id="Group_11">
<g id="Group_12">
<path id="Vector_13" d="M16.4114 14.1014C16.6323 14.0157 16.8064 13.9202 17.0538 13.9315C17.3011 13.943 17.5026 14.0452 17.7306 14.1259C17.8299 14.1612 17.8668 14.0234 17.7963 13.9696C17.4364 13.6947 16.6364 13.585 16.3435 14.0133C16.3149 14.0544 16.3628 14.1202 16.4114 14.1014Z" fill="#1B1E28"/>
</g>
</g>
<g id="Group_13">
<g id="Group_14">
<path id="Vector_14" d="M18.5716 16.1472C18.6988 16.4599 18.4572 16.8534 18.0319 17.0263C17.6065 17.1994 17.1589 17.0859 17.0319 16.7733C16.9047 16.4612 17.1465 16.0676 17.5718 15.8945C17.9969 15.722 18.4448 15.8348 18.5716 16.1472Z" fill="#EAAABA"/>
</g>
</g>
<path id="Vector_15" d="M13.736 15.9634C13.5417 15.8762 13.341 15.8498 13.166 15.8757V17.0724C13.1853 17.0826 13.205 17.0925 13.2255 17.1017C13.653 17.2935 14.1142 17.1945 14.2551 16.8798C14.396 16.5659 14.1635 16.1557 13.736 15.9634Z" fill="#EAAABA"/>
<g id="Group_15">
<g id="Group_16">
<g id="Group_17">
<path id="Vector_16" d="M14.9954 14.8669C15.0692 15.6331 14.649 16.376 13.8752 16.58C13.0029 16.81 12.1155 16.2107 11.9807 15.3294C11.8544 14.5008 12.429 13.7248 13.2563 13.5982C14.1142 13.4674 14.8274 14.0557 14.9968 14.8782C15.008 14.9315 15.089 14.9088 15.0778 14.856C14.9013 13.9988 14.1385 13.365 13.238 13.5072C12.3699 13.6444 11.7615 14.4719 11.8889 15.3415C12.016 16.2095 12.8537 16.8239 13.7185 16.697C14.6201 16.5649 15.1637 15.7409 15.0797 14.8667C15.0745 14.8136 14.9903 14.8132 14.9954 14.8669Z" fill="#1B1E28"/>
</g>
</g>
<g id="Group_18">
<g id="Group_19">
<path id="Vector_17" d="M18.8592 15.1392C18.8146 15.9675 18.1933 16.6682 17.3302 16.6682C16.5013 16.6682 15.8009 15.9675 15.8009 15.1392C15.8009 14.3674 16.4054 13.7065 17.1667 13.6272C18.0899 13.5316 18.811 14.2379 18.8592 15.1392C18.8621 15.193 18.9463 15.1934 18.9435 15.1392C18.8961 14.2627 18.245 13.5259 17.3302 13.5259C16.4547 13.5259 15.7125 14.2607 15.7168 15.1392C15.7209 15.9864 16.3971 16.7031 17.2445 16.7475C18.1923 16.7974 18.8944 16.0492 18.9435 15.1392C18.9465 15.0849 18.8622 15.0849 18.8592 15.1392Z" fill="#1B1E28"/>
</g>
</g>
<g id="Group_20">
<g id="Group_21">
<path id="Vector_18" d="M15.007 15.0463C15.2383 15.0873 15.5158 15.0894 15.7487 15.0567C15.7812 15.0523 15.7812 14.996 15.7487 14.9914C15.5158 14.9592 15.2388 14.9609 15.007 15.0019C14.9846 15.0057 14.9846 15.0422 15.007 15.0463Z" fill="#1B1E28"/>
</g>
</g>
<g id="Group_22">
<g id="Group_23">
<path id="Vector_19" d="M18.8335 15.0747C19.7242 15.1231 20.6274 15.0794 21.5195 15.0714C21.5892 15.0707 21.5895 14.962 21.5195 14.9625C20.6273 14.9697 19.7235 14.941 18.8335 15.0045C18.7886 15.0077 18.7884 15.0722 18.8335 15.0747Z" fill="#1B1E28"/>
</g>
</g>
</g>
<path id="Vector_20" d="M24.4235 15.8821C23.7576 14.1849 21.207 15.3399 21.207 15.3399L20.9999 16.9999L22.2569 16.52C22.3021 16.6326 23.474 16.6551 23.474 16.6551L24.4235 15.8821Z" fill="#FAB9C9"/>
<g id="Group_24">
<g id="Group_25">
<path id="Vector_21" d="M22.1971 15.4214C22.8963 15.3144 23.5715 15.9269 23.4921 16.6414C23.4799 16.7538 23.3023 16.755 23.3144 16.6414C23.3796 16.0541 22.8404 15.5014 22.2443 15.5925C22.1324 15.6098 22.0843 15.4388 22.1971 15.4214Z" fill="#E6A0B1"/>
</g>
<g id="Group_26">
<path id="Vector_22" d="M23.1651 15.9429C22.8721 16.0709 22.6529 16.3074 22.5572 16.6139C22.5236 16.723 22.3521 16.6764 22.3863 16.5668C22.494 16.2195 22.741 15.9356 23.0755 15.7895C23.1795 15.7443 23.27 15.8972 23.1651 15.9429Z" fill="#E6A0B1"/>
</g>
</g>
<g id="Group_27">
<path id="Vector_23" d="M14.1884 5.95269C13.1627 6.64604 12.9528 7.9645 13.4263 9.05922C13.4416 9.09477 13.4933 9.06395 13.4783 9.02889C13.0185 7.96662 13.2207 6.67911 14.2188 6.00452C14.2508 5.9829 14.2205 5.93069 14.1884 5.95269Z" fill="white"/>
</g>
<g id="Group_28">
<path id="Vector_24" d="M12.4038 13.3569C12.4896 13.5303 12.5683 13.7056 12.6742 13.8679C12.6954 13.9002 12.7476 13.8701 12.7262 13.8376C12.62 13.6751 12.5415 13.4998 12.4557 13.3267C12.4386 13.292 12.3866 13.3225 12.4038 13.3569Z" fill="white"/>
</g>
<g id="Group_29">
<path id="Vector_25" d="M19.9941 11.4384C19.9941 11.5053 19.9941 11.5719 19.9941 11.6388C19.9941 11.6774 20.0542 11.6774 20.0542 11.6388C20.0542 11.5719 20.0542 11.5053 20.0542 11.4384C20.0542 11.3998 19.9941 11.3998 19.9941 11.4384Z" fill="white"/>
</g>
<g id="Group_30">
<path id="Vector_26" d="M19.9168 12.3049C19.8987 12.3295 19.895 12.3604 19.8768 12.385C19.8537 12.4162 19.9059 12.4461 19.9288 12.4154C19.9472 12.3908 19.9509 12.3598 19.9688 12.3352C19.9918 12.304 19.9396 12.2739 19.9168 12.3049Z" fill="white"/>
</g>
<g id="Group_31">
<path id="Vector_27" d="M23.3981 12.1799C23.3272 12.8549 23.3408 13.3953 23.5996 14.0311C23.6141 14.0665 23.6722 14.0512 23.6576 14.0153C23.4032 13.3899 23.3886 12.8415 23.4582 12.1799C23.4625 12.1412 23.4021 12.1416 23.3981 12.1799Z" fill="white"/>
</g>
<path id="Vector_28" d="M15.4047 21.9987C17.8576 22.1297 19.3367 22.0082 20.1327 21.1373C20.9285 20.2666 21.6775 18.7123 21.1154 14.5834C20.5538 10.4543 20.4391 8.9839 20.4391 8.9839L18.3051 7.82666L13.6436 8.1123L13.1668 11.7183V11.7884C13.1668 11.7884 13.3142 11.4094 13.9252 11.4303C14.5363 11.4514 14.4729 11.1634 15.1891 10.37C15.9056 9.5767 16.2566 10.5807 16.8226 11.0512C17.3885 11.5215 18.1877 10.8966 19.1144 10.8686C20.0416 10.8403 19.8588 11.9499 19.6835 12.2519C19.5077 12.554 19.3463 12.9822 19.9084 13.1859C20.4699 13.3895 20.6663 13.4806 20.7369 14.8569C20.8069 16.2333 20.4349 17.2095 19.7255 17.6728C19.0164 18.1363 17.5207 18.031 16.4812 17.2375C15.442 16.4441 14.3147 17.2062 13.7709 17.4412C13.4836 17.565 13.2049 17.4044 13.1669 17.3811V18.6C13.1668 18.6001 12.9517 21.8677 15.4047 21.9987Z" fill="#1B1E28"/>
<g id="Group_32">
<path id="Vector_29" d="M12.8796 9.67528C12.9015 10.3062 12.5166 10.8185 12.2786 11.3766C12.1103 11.771 12.0863 12.1986 12.0982 12.6205C12.0992 12.6591 12.1594 12.6594 12.1583 12.6205C12.1401 11.9786 12.2868 11.4772 12.567 10.905C12.769 10.4928 12.9559 10.145 12.9396 9.67528C12.9384 9.63662 12.8782 9.6365 12.8796 9.67528Z" fill="white"/>
</g>
<g id="Group_33">
<path id="Vector_30" d="M19.9758 6.77904C20.684 6.88731 21.4078 6.73777 22.1052 6.93579C23.4618 7.3205 23.1457 9.3348 22.7229 10.2814C22.7071 10.3164 22.759 10.3469 22.7746 10.3116C23.197 9.36649 23.3673 8.13952 22.7068 7.25872C22.1251 6.48308 20.7998 6.84455 19.9919 6.72112C19.9541 6.71527 19.9375 6.7732 19.9758 6.77904Z" fill="white"/>
</g>
<g id="Group_34">
<path id="Vector_31" d="M16.5468 9.95581C16.6075 11.7696 18.8813 9.75457 19.6614 10.6584C19.6867 10.6876 19.7292 10.6451 19.704 10.6157C18.9072 9.69242 16.6639 11.6584 16.6071 9.95569C16.6059 9.91716 16.5457 9.91703 16.5468 9.95581Z" fill="white"/>
</g>
<g id="Group_35">
<path id="Vector_32" d="M15.315 22.0423C16.3216 22.0489 17.3438 22.171 18.3458 22.0243C19.4247 21.8663 20.1586 21.4468 20.7206 20.5096C20.7405 20.4763 20.6885 20.4462 20.6686 20.4794C20.052 21.5072 19.1954 21.8863 18.0285 21.9986C17.1268 22.0852 16.2176 21.988 15.315 21.9822C15.2764 21.9819 15.2764 22.0421 15.315 22.0423Z" fill="white"/>
</g>
<g id="Group_36">
<g id="Group_37">
<path id="Vector_33" d="M15.1705 18.1414C15.423 18.7046 16.4655 18.4779 16.4665 17.8629C16.4665 17.7972 16.3764 17.7729 16.3432 17.8296C16.2257 18.0298 16.1488 18.218 15.8979 18.2826C15.6353 18.3505 15.4435 18.2115 15.2418 18.0699C15.1943 18.0368 15.1516 18.0992 15.1705 18.1414Z" fill="white"/>
</g>
</g>
</g>
<path id="Vector_34" d="M14.8544 26.4862C17.0396 29.0452 19.4232 28.7113 21.9365 26.4862L21.9367 36.9997H14.8546V26.4862H14.8544Z" fill="#E3EEF1"/>
<path id="Vector_35" d="M15.0461 23.8306L10.08 25.535C12.3679 29.4608 13.5785 33.271 13.568 36.9508H15.7877C16.9249 32.9805 16.536 28.5659 15.0461 23.8306Z" fill="#186BE7"/>
<path id="Vector_36" d="M22.3804 23.8306L27.3466 25.535C25.0584 29.4608 23.848 33.271 23.8583 36.9508H21.6387C20.5018 32.9805 20.8906 28.5659 22.3804 23.8306Z" fill="#186BE7"/>
</g>
</g>
</g>
</g>
</svg>
