<svg width="172" height="44" viewBox="0 0 172 44" fill="none" xmlns="http://www.w3.org/2000/svg">
<g id="Group 335">
<g id="Group 333">
<circle id="Ellipse 674" cx="150" cy="22" r="22" fill="#03A9F4"/>
<path id="Vector" d="M145.548 32C154.605 32 159.558 24.3062 159.558 17.6344C159.558 17.4159 159.553 17.1984 159.544 16.9818C160.507 16.2668 161.339 15.3815 162 14.3673C161.118 14.7695 160.168 15.0402 159.172 15.1622C160.189 14.5371 160.969 13.5484 161.338 12.3696C160.371 12.9576 159.314 13.3721 158.211 13.5952C157.312 12.6138 156.033 12 154.617 12C151.897 12 149.692 14.2611 149.692 17.0483C149.692 17.4445 149.736 17.8299 149.82 18.1995C145.728 17.9884 142.099 15.9793 139.67 12.9243C139.233 13.6948 139.003 14.5705 139.003 15.462C139.003 17.2137 139.873 18.7601 141.195 19.6647C140.413 19.6403 139.648 19.4237 138.965 19.0332C138.964 19.0545 138.964 19.0751 138.964 19.0977C138.964 21.5429 140.661 23.5845 142.914 24.0471C142.491 24.1653 142.054 24.225 141.616 24.2248C141.305 24.2246 140.995 24.1941 140.69 24.1337C141.317 26.1398 143.135 27.5997 145.29 27.6404C143.605 28.9949 141.482 29.8016 139.175 29.8016C138.778 29.8016 138.385 29.7785 138 29.7318C140.179 31.164 142.767 31.9998 145.548 31.9998" fill="white"/>
</g>
<g id="Group 334">
<circle id="Ellipse 674_2" opacity="0.7" cx="86" cy="22" r="22" fill="url(#paint0_linear_2_2295)"/>
<g id="Group">
<path id="Vector_2" d="M92.5379 16.6624C92.5379 15.9977 91.9991 15.461 91.3369 15.461C90.6747 15.461 90.1355 15.9977 90.1355 16.6624C90.1355 17.3246 90.6747 17.8613 91.3369 17.8613C91.9991 17.8613 92.5379 17.3246 92.5379 16.6624Z" fill="white"/>
<path id="Vector_3" d="M94.1386 26.0404C94.0941 27.0154 93.931 27.5452 93.7956 27.8971C93.6137 28.3636 93.3968 28.6972 93.0449 29.0471C92.697 29.397 92.3634 29.6135 91.8968 29.7933C91.545 29.9308 91.0132 30.0943 90.0382 30.1408C88.984 30.1872 88.6717 30.1971 85.9985 30.1971C83.3278 30.1971 83.013 30.1872 81.9589 30.1408C80.9838 30.0943 80.4545 29.9308 80.1026 29.7933C79.6336 29.6135 79.3025 29.397 78.9526 29.0471C78.6003 28.6972 78.3833 28.3636 78.2039 27.8971C78.0685 27.5452 77.903 27.0154 77.8609 26.0404C77.8095 24.9862 77.8001 24.6689 77.8001 22.0012C77.8001 19.3281 77.8095 19.0133 77.8609 17.9591C77.903 16.9841 78.0685 16.4548 78.2039 16.0999C78.3833 15.6339 78.6003 15.3023 78.9526 14.9524C79.3025 14.603 79.6336 14.386 80.1026 14.2042C80.4545 14.0663 80.9838 13.9052 81.9589 13.8587C83.013 13.8122 83.3278 13.8004 85.9985 13.8004C88.6717 13.8004 88.984 13.8122 90.0382 13.8587C91.0132 13.9052 91.545 14.0663 91.8968 14.2042C92.3634 14.386 92.697 14.603 93.0449 14.9524C93.3968 15.3023 93.6137 15.6339 93.7956 16.0999C93.931 16.4548 94.0941 16.9841 94.1386 17.9591C94.1875 19.0133 94.1993 19.3281 94.1993 22.0012C94.1993 24.6689 94.1875 24.9862 94.1386 26.0404ZM95.939 17.8771C95.89 16.8116 95.722 16.0836 95.4724 15.4496C95.2184 14.7918 94.8779 14.2343 94.3204 13.6768C93.7655 13.1219 93.208 12.7813 92.5502 12.5244C91.9137 12.2773 91.1881 12.1072 90.1221 12.0608C89.0561 12.0094 88.7157 12 85.9985 12C83.2838 12 82.9409 12.0094 81.8749 12.0608C80.8113 12.1072 80.0863 12.2773 79.4468 12.5244C78.7915 12.7813 78.2341 13.1219 77.6791 13.6768C77.1216 14.2343 76.7811 14.7918 76.5246 15.4496C76.2775 16.0836 76.1095 16.8116 76.0581 17.8771C76.0116 18.9431 75.9998 19.2841 75.9998 22.0012C75.9998 24.7159 76.0116 25.0564 76.0581 26.1224C76.1095 27.1859 76.2775 27.9134 76.5246 28.5504C76.7811 29.2058 77.1216 29.7657 77.6791 30.3207C78.2341 30.8757 78.7915 31.2187 79.4468 31.4752C80.0863 31.7222 80.8113 31.8903 81.8749 31.9392C82.9409 31.9881 83.2838 32 85.9985 32C88.7157 32 89.0561 31.9881 90.1221 31.9392C91.1881 31.8903 91.9137 31.7222 92.5502 31.4752C93.208 31.2187 93.7655 30.8757 94.3204 30.3207C94.8779 29.7657 95.2184 29.2058 95.4724 28.5504C95.722 27.9134 95.89 27.1859 95.939 26.1224C95.9879 25.0564 95.9998 24.7159 95.9998 22.0012C95.9998 19.2841 95.9879 18.9431 95.939 17.8771Z" fill="white"/>
<path id="Vector_4" d="M85.9983 25.3317C84.1584 25.3317 82.6654 23.8411 82.6654 22.0012C82.6654 20.1583 84.1584 18.6658 85.9983 18.6658C87.8387 18.6658 89.3337 20.1583 89.3337 22.0012C89.3337 23.8411 87.8387 25.3317 85.9983 25.3317ZM85.9983 16.863C83.162 16.863 80.865 19.1649 80.865 22.0012C80.865 24.835 83.162 27.1345 85.9983 27.1345C88.8345 27.1345 91.1341 24.835 91.1341 22.0012C91.1341 19.1649 88.8345 16.863 85.9983 16.863Z" fill="white"/>
</g>
</g>
<g id="Group 332">
<path id="Vector_5" d="M44 22C44 9.84973 34.1503 0 22 0C9.84973 0 0 9.84973 0 22C0 32.9808 8.04507 42.0823 18.5625 43.7328V28.3594H12.9766V22H18.5625V17.1531C18.5625 11.6394 21.8469 8.59376 26.8722 8.59376C29.2792 8.59376 31.7969 9.02344 31.7969 9.02344V14.4375H29.0227C26.2898 14.4375 25.4375 16.1334 25.4375 17.8732V22H31.5391L30.5637 28.3594H25.4375V43.7328C35.9549 42.0823 44 32.9808 44 22Z" fill="#1877F2"/>
<path id="Vector_6" d="M30.5637 28.3594L31.5391 22H25.4375V17.8731C25.4375 16.1334 26.2898 14.4375 29.0227 14.4375H31.7969V9.02343C31.7969 9.02343 29.2792 8.59375 26.8722 8.59375C21.8469 8.59375 18.5625 11.6394 18.5625 17.1531V22H12.9766V28.3594H18.5625V43.7327C19.6997 43.9109 20.849 44.0003 22 44C23.1694 44 24.3174 43.9085 25.4375 43.7327V28.3594H30.5637Z" fill="white"/>
</g>
</g>
<defs>
<linearGradient id="paint0_linear_2_2295" x1="64.3969" y1="0.400136" x2="104.368" y2="40.3713" gradientUnits="userSpaceOnUse">
<stop stop-color="#FFD521"/>
<stop offset="0.05" stop-color="#FFD521"/>
<stop offset="0.501119" stop-color="#F50000"/>
<stop offset="0.95" stop-color="#B900B4"/>
<stop offset="0.950079" stop-color="#B900B4"/>
<stop offset="1" stop-color="#B900B4"/>
</linearGradient>
</defs>
</svg>
