<svg width="25" height="24" viewBox="0 0 25 24" fill="none" xmlns="http://www.w3.org/2000/svg">
<g id="Home">
<g id="Group 41">
<path id="Vector" d="M2.5 9.65356L11.5033 2.45092C12.2548 1.84969 13.3227 1.84969 14.0742 2.45092L23.0775 9.65356" stroke="#24BAEC" stroke-width="1.5" stroke-linecap="round" stroke-linejoin="round"/>
<path id="Vector_2" d="M10.1935 3.53106L6.07804 6.87491C5.33082 7.48203 4.9572 7.78559 4.75746 8.20522C4.55774 8.62484 4.55774 9.10623 4.55774 10.069V13.769C4.55774 17.6491 4.55774 19.5892 5.76314 20.7945C6.96855 22 8.90861 22 12.7887 22C16.6688 22 18.609 22 19.8143 20.7945C21.0198 19.5892 21.0198 17.6491 21.0198 13.769V10.069C21.0198 9.10623 21.0198 8.62484 20.8201 8.20522C20.6202 7.78559 20.2467 7.48203 19.4995 6.87491L15.384 3.53106C14.1409 2.52106 13.5194 2.01605 12.7887 2.01605C12.0581 2.01605 11.4366 2.52106 10.1935 3.53106Z" stroke="#24BAEC" stroke-width="1.5"/>
<path id="Vector_3" d="M10.4736 16.084H15.1036" stroke="#24BAEC" stroke-width="1.5" stroke-linecap="round"/>
</g>
</g>
</svg>
